<?xml version="1.0" encoding="UTF-8" standalone="no"?>
<!-- Created with Inkscape (http://www.inkscape.org/) -->

<svg
   width="119.97503mm"
   height="42.535862mm"
   viewBox="0 0 119.97503 42.535862"
   version="1.1"
   id="svg1"
   xml:space="preserve"
   inkscape:version="1.4 (86a8ad7, 2024-10-11)"
   sodipodi:docname="logo-white.svg"
   inkscape:export-filename="logo.png"
   inkscape:export-xdpi="96"
   inkscape:export-ydpi="96"
   xmlns:inkscape="http://www.inkscape.org/namespaces/inkscape"
   xmlns:sodipodi="http://sodipodi.sourceforge.net/DTD/sodipodi-0.dtd"
   xmlns="http://www.w3.org/2000/svg"
   xmlns:svg="http://www.w3.org/2000/svg"><sodipodi:namedview
     id="namedview1"
     pagecolor="#ffffff"
     bordercolor="#000000"
     borderopacity="0.25"
     inkscape:showpageshadow="2"
     inkscape:pageopacity="0.0"
     inkscape:pagecheckerboard="0"
     inkscape:deskcolor="#d1d1d1"
     inkscape:document-units="mm"
     inkscape:zoom="2.0000001"
     inkscape:cx="204.24999"
     inkscape:cy="63.499998"
     inkscape:window-width="1920"
     inkscape:window-height="996"
     inkscape:window-x="-8"
     inkscape:window-y="-8"
     inkscape:window-maximized="1"
     inkscape:current-layer="layer1"
     showguides="true" /><defs
     id="defs1"><inkscape:path-effect
       effect="bspline"
       id="path-effect6"
       is_visible="true"
       lpeversion="1.3"
       weight="33.333333"
       steps="2"
       helper_size="0"
       apply_no_weight="true"
       apply_with_weight="true"
       only_selected="false"
       uniform="false" /><inkscape:path-effect
       effect="bspline"
       id="path-effect5"
       is_visible="true"
       lpeversion="1.3"
       weight="33.333333"
       steps="2"
       helper_size="0"
       apply_no_weight="true"
       apply_with_weight="true"
       only_selected="false"
       uniform="false" /><inkscape:path-effect
       effect="bspline"
       id="path-effect4"
       is_visible="true"
       lpeversion="1.3"
       weight="33.333333"
       steps="2"
       helper_size="0"
       apply_no_weight="true"
       apply_with_weight="true"
       only_selected="false"
       uniform="false" /><inkscape:path-effect
       effect="bspline"
       id="path-effect3"
       is_visible="true"
       lpeversion="1.3"
       weight="33.333333"
       steps="2"
       helper_size="0"
       apply_no_weight="true"
       apply_with_weight="true"
       only_selected="false"
       uniform="false" /><inkscape:path-effect
       effect="bspline"
       id="path-effect2"
       is_visible="true"
       lpeversion="1.3"
       weight="33.333333"
       steps="2"
       helper_size="0"
       apply_no_weight="true"
       apply_with_weight="true"
       only_selected="false"
       uniform="false" /></defs><g
     inkscape:label="Camada 1"
     inkscape:groupmode="layer"
     id="layer1"
     transform="translate(-20.25495,-106.68748)"><path
       style="font-size:13.1688px;font-family:Agatho;-inkscape-font-specification:Agatho;stroke-width:1.09739;fill:#ffffff"
       d="m 31.420997,129.41663 c 0.09218,-0.0922 0.2107,-0.13169 0.381895,-0.13169 h 0.10535 v -0.26338 h -1.935813 l -2.554748,6.28152 -2.686435,-6.22884 -0.02634,-0.0527 h -1.751451 v 0.26338 h 0.118519 c 0.355558,0 0.526752,0.2107 0.539921,0.71111 v 6.163 0.0263 0.0132 c -0.01317,0.47407 -0.237038,0.76379 -0.592596,0.76379 h -0.118516 v 0.2502 h 1.843632 v -0.2502 h -0.131688 c -0.355558,0 -0.579427,-0.28972 -0.592596,-0.76379 v -0.0263 -0.0132 l -0.01317,-5.54406 2.791786,6.28151 0.01317,0.0527 h 0.355557 l 2.831292,-6.92679 v 5.9918 c 0,0.40824 -0.06584,0.67161 -0.197532,0.81647 -0.09218,0.0922 -0.210701,0.13169 -0.368726,0.13169 H 29.30082 v 0.2502 h 2.607422 v -0.2502 h -0.118519 c -0.158026,0 -0.276545,-0.0395 -0.368726,-0.13169 -0.144857,-0.14486 -0.210701,-0.40823 -0.210701,-0.82963 v -5.76794 c 0,-0.40823 0.06584,-0.67161 0.210701,-0.81646 z m 4.767101,3.67409 c 0,1.23787 0.368727,2.26503 1.106179,3.04199 0.750622,0.79013 1.672438,1.1852 2.765449,1.1852 1.079841,0 2.014826,-0.40824 2.778616,-1.21153 0.750622,-0.8033 1.145686,-1.8173 1.145686,-3.02883 0,-1.18519 -0.395064,-2.18602 -1.145686,-2.96298 -0.750621,-0.79013 -1.659268,-1.18519 -2.686435,-1.18519 -1.027166,0 -1.935814,0.34239 -2.673266,1.04033 -0.855972,0.8033 -1.290543,1.85681 -1.290543,3.12101 z m 3.858459,-3.80578 c 0.76379,0 1.369555,0.27654 1.804125,0.81646 0.539921,0.68478 0.816466,1.73828 0.816466,3.12101 0,1.29054 -0.250207,2.23869 -0.737453,2.83129 -0.487245,0.60577 -1.119348,0.90865 -1.883138,0.90865 -0.711115,0 -1.277374,-0.27655 -1.711944,-0.82964 -0.566259,-0.71111 -0.842804,-1.73828 -0.842804,-3.06833 0,-1.30371 0.276545,-2.29137 0.816466,-2.96298 0.434571,-0.53992 1.013998,-0.81646 1.738282,-0.81646 z m 14.116955,0.13169 c -0.01948,-0.19479 0.197532,0.40823 0.197532,0.81646 l 0.01317,5.08316 -4.345704,-6.25518 -0.02634,-0.0395 h -1.764619 v 0.26338 h 0.118519 c 0.158026,0 0.276545,0.0395 0.368727,0.13169 0.144856,0.14485 0.2107,0.40823 0.2107,0.81646 v 5.7811 c 0,0.40824 -0.06584,0.67161 -0.2107,0.81647 -0.09218,0.0922 -0.22387,0.13169 -0.395064,0.13169 h -0.01317 -0.07901 v 0.2502 h 1.790957 v -0.2502 h -0.131688 c -0.144857,0 -0.276545,-0.0395 -0.368727,-0.14486 -0.131688,-0.14486 -0.2107,-0.39506 -0.2107,-0.8033 v -5.89962 l 4.477392,6.40004 0.474077,0.69794 h 0.487245 v -6.97946 c 0.01317,-0.39506 0.09218,-0.71111 0.210701,-0.82963 0.09218,-0.079 0.210701,-0.11852 0.368726,-0.11852 h 0.131688 v -0.26338 h -1.804125 v 0.26338 h 0.131688 c 0.158025,0 0.381699,0.26141 0.368726,0.13169 z m 5.767928,1.10617 c 0.302882,-0.80329 0.842803,-1.14568 1.777788,-1.14568 h 0.934984 v 6.63707 c 0,0.40824 -0.06584,0.67161 -0.2107,0.81647 -0.09218,0.0922 -0.210701,0.13169 -0.368727,0.13169 h -0.118519 v 0.2502 h 2.607422 v -0.2502 h -0.118519 c -0.171194,0 -0.276545,-0.0395 -0.368726,-0.13169 -0.144857,-0.14486 -0.210701,-0.40823 -0.210701,-0.81647 v -6.63707 h 0.934985 c 0.934985,0 1.474905,0.34239 1.777788,1.14568 l 0.07901,0.18437 h 0.250207 v -1.68561 h -7.295515 v 1.68561 h 0.250207 z m 11.628048,6.30786 c 0.0065,0.13021 -0.210701,0.13169 -0.368727,0.13169 h -0.118519 v 0.2502 h 5.59674 v -1.63293 h -0.250207 l -0.01317,0.0263 c -0.05267,0.13169 -0.144857,0.32922 -0.144857,0.32922 -0.302882,0.65844 -0.803296,0.92182 -1.711944,0.92182 h -1.567087 v -3.89797 h 1.013998 c 0.816465,0 1.211529,0.19753 1.42223,0.71112 l 0.03951,0.11852 h 0.263376 v -1.92265 h -0.263378 l -0.03951,0.10535 c -0.210701,0.44774 -0.605765,0.61894 -1.42223,0.61894 h -1.013998 v -3.21319 h 1.330049 c 1.000829,0 1.54075,0.32922 1.830463,1.07984 l 0.02634,0.0527 h 0.263376 v -1.48808 h -5.359702 v 0.26338 h 0.118519 c 0.158026,0 0.276545,0.0395 0.368727,0.13169 0.144856,0.14485 0.2107,0.40823 0.2107,0.81646 v 5.7811 c 0,0.40824 -0.22093,0.61186 -0.2107,0.81647 z m 21.863745,-1.51441 -0.105351,0.23704 c -0.07901,0.14485 -0.171194,0.28971 -0.263376,0.40823 -0.171194,0.22387 -0.355557,0.40823 -0.539921,0.53992 -0.223869,0.15803 -0.43457,0.26338 -0.645271,0.32922 -0.263376,0.079 -0.55309,0.10535 -0.842803,0.10535 -0.381895,0 -0.776959,-0.0658 -1.106179,-0.19753 -0.171195,-0.0659 -0.32922,-0.15803 -0.487246,-0.25021 -0.447739,-0.30288 -0.816466,-0.77696 -1.09301,-1.40906 -0.237039,-0.55309 -0.395064,-1.33005 -0.421402,-2.08067 -0.02634,-1.18519 0.302882,-2.2387 0.921816,-2.91031 0.487246,-0.52675 1.132517,-0.79012 1.909476,-0.79012 0.447739,0 0.921816,0.13168 1.330049,0.38189 0.447739,0.27655 0.750622,0.8428 0.974491,1.36956 l 0.01317,0.0263 c 0.02634,0.079 0.06584,0.14486 0.07901,0.2107 l 0.02634,0.0527 h 0.250208 v -2.05433 h -0.250208 l -0.02634,0.0263 c -0.05267,0.0658 -0.158026,0.0658 -0.32922,0.0263 -0.05268,-0.0132 -0.09218,-0.0263 -0.131688,-0.0395 -0.02634,-0.0132 -0.05267,-0.0132 -0.06584,-0.0263 l -0.05267,-0.0132 c -0.171195,-0.0527 -0.342389,-0.10535 -0.513584,-0.14486 -0.316051,-0.079 -0.632102,-0.13169 -0.961322,-0.15802 -0.171195,-0.0132 -0.32922,-0.0263 -0.474077,-0.0263 -0.539921,0 -1.330049,0.0922 -2.001658,0.51358 -1.19836,0.75062 -1.948982,2.08067 -1.988488,3.55558 -0.03951,1.02717 0.276544,2.08067 0.816465,2.80495 0.302883,0.39507 0.671609,0.72429 1.066673,0.96133 0.829634,0.4609 1.804126,0.55309 2.475734,0.55309 h 0.289714 c 0.460908,-0.0263 0.921816,-0.13169 1.356387,-0.25021 0.131688,-0.0263 0.381895,-0.11852 0.632102,-0.2107 l 0.03951,-0.0132 0.32922,-1.36956 0.01317,-0.0922 z m 6.426384,1.6461 h -0.13169 c -0.23704,0 -0.39506,-0.0527 -0.47408,-0.18437 -0.11852,-0.15802 -0.11852,-0.43457 0.0132,-0.85597 l 0.61894,-1.79095 h 2.712773 l 0.81646,2.02799 c 0.10535,0.30288 0.11852,0.51358 0.0263,0.64527 -0.0527,0.0922 -0.15802,0.13169 -0.28971,0.15803 h -0.22387 -0.0527 v 0.2502 h 2.91031 v -0.2502 h -0.0395 c -0.0395,0 -0.15802,-0.0132 -0.19753,-0.0132 -0.0263,-0.0132 -0.0395,-0.0132 -0.0527,-0.0132 -0.31605,-0.0922 -0.55309,-0.36873 -0.79012,-0.88231 l -2.88397,-6.97946 -0.0263,-0.0527 h -0.51358 l -2.475733,7.01897 c -0.25021,0.64527 -0.53992,0.92182 -0.93499,0.92182 h -0.10535 v 0.2502 h 2.09384 z m 0.158023,-3.18685 1.13252,-3.26586 1.30371,3.26586 z m 10.4297,3.05516 c -0.0922,0.0922 -0.21071,0.13169 -0.3819,0.13169 h -0.0263 -0.079 v 0.2502 h 2.60742 v -0.2502 h -0.13169 c -0.15802,0 -0.27654,-0.0395 -0.36872,-0.13169 -0.13169,-0.14486 -0.2107,-0.40823 -0.2107,-0.81647 v -2.58108 h 0.80329 0.0132 c 0.0263,0.0263 0.0527,0.0395 0.0658,0.0527 l 0.0395,0.0263 c 0,0 0.0132,0 0.0132,0.0132 0.13169,0.0658 0.23704,0.15803 0.34239,0.25021 0.25021,0.22387 0.47408,0.51358 0.64527,0.8428 0.11852,0.23704 0.22387,0.44774 0.35556,0.73745 l 0.0132,0.0132 c 0.25021,0.53992 0.46091,0.98766 0.76379,1.31688 0.32922,0.36873 0.72428,0.52675 1.2642,0.52675 h 0.1712 0.76379 0.0527 v -0.23703 l -0.079,-0.0132 c -0.44774,-0.0922 -0.81646,-0.55309 -1.04033,-0.82964 l -0.0263,-0.0263 c -0.27655,-0.34239 -0.52675,-0.72429 -0.76379,-1.07985 l -0.2107,-0.30288 -0.15803,-0.22387 c -0.0527,-0.079 -0.10535,-0.15802 -0.17119,-0.22387 -0.25021,-0.31605 -0.50042,-0.55309 -0.79013,-0.73745 -0.0132,-0.0132 -0.0395,-0.0263 -0.079,-0.0527 l -0.0395,-0.0263 c -0.0132,-0.0132 -0.0395,-0.0263 -0.0658,-0.0395 l -0.0263,-0.0132 0.0263,-0.0132 c 1.54075,-0.17119 2.42305,-0.98766 2.42305,-2.22552 0,-1.35639 -1.01399,-2.14652 -2.76544,-2.14652 h -3.43706 v 0.26338 h 0.11852 c 0.15802,0 0.27654,0.0395 0.36873,0.13169 0.14485,0.14485 0.2107,0.40823 0.2107,0.81646 v 5.7811 c 0,0.40824 -0.0658,0.67161 -0.2107,0.81647 z m 1.40906,-3.75311 v -3.68726 h 1.55392 c 0.94815,0 1.4749,0.6321 1.4749,1.77779 0,1.19836 -0.65844,1.90947 -1.77779,1.90947 z m 13.05028,3.77945 h -1.61976 v -6.62391 c 0,-0.40823 0.0658,-0.67161 0.2107,-0.81646 0.0922,-0.0922 0.2107,-0.13169 0.36872,-0.13169 h 0.11852 v -0.26338 h -2.59425 v 0.26338 h 0.11852 c 0.15802,0 0.27654,0.0395 0.36872,0.13169 0.14486,0.14485 0.21071,0.40823 0.21071,0.81646 v 5.7811 c 0,0.40824 -0.0658,0.67161 -0.21071,0.81647 -0.0922,0.0922 -0.22387,0.13169 -0.39506,0.13169 h -0.0922 v 0.2502 h 2.55475 3.06833 v -1.63293 h -0.25021 l -0.0922,0.19754 c -0.28972,0.76379 -0.8033,1.07984 -1.76462,1.07984 z m 6.47905,-3.76628 c 0,1.23787 0.36872,2.26503 1.10617,3.04199 0.75063,0.79013 1.67244,1.1852 2.76545,1.1852 1.07984,0 2.01483,-0.40824 2.77862,-1.21153 0.75062,-0.8033 1.14568,-1.8173 1.14568,-3.02883 0,-1.18519 -0.39506,-2.18602 -1.14568,-2.96298 -0.75062,-0.79013 -1.65927,-1.18519 -2.68644,-1.18519 -1.02716,0 -1.93581,0.34239 -2.67326,1.04033 -0.85597,0.8033 -1.29054,1.85681 -1.29054,3.12101 z m 3.85845,-3.80578 c 0.76379,0 1.36956,0.27654 1.80413,0.81646 0.53992,0.68478 0.81646,1.73828 0.81646,3.12101 0,1.29054 -0.2502,2.23869 -0.73745,2.83129 -0.48724,0.60577 -1.11935,0.90865 -1.88314,0.90865 -0.71111,0 -1.27737,-0.27655 -1.71194,-0.82964 -0.56626,-0.71111 -0.8428,-1.73828 -0.8428,-3.06833 0,-1.30371 0.27654,-2.29137 0.81646,-2.96298 0.43457,-0.53992 1.014,-0.81646 1.73828,-0.81646 z"
       id="text1"
       aria-label="M O N T E   C A R L O"
       sodipodi:nodetypes="ssccccccccsccccsccccsccccccccscsccccsssssscscscscsscscscscssccccccsssssscccccscsccccccsccccssscscsssccccssscsccccccccsscccccccsccsccccccsccsccccccsssssscccccscccccscccccccccccccccsccccsccccccccsccccccccccccscccccccscccccccccscccccscscccccccccccsccccccccccccccsccssccssssccccssscccsssccccsssssscccccccccscscscscsscscscscs" /><path
       style="font-weight:bold;font-size:9.86118px;font-family:'Helvetica Condensed';-inkscape-font-specification:'Helvetica Condensed,  Bold';stroke-width:0.821758;fill:#ffffff"
       d="m 55.89911,149.22334 v -3.3528 h 2.376544 v -1.08473 H 55.89911 v -1.87362 h 2.534323 v -1.08473 h -3.914889 v 7.39588 z m 19.771665,0 v -1.08473 h -2.563907 v -6.31115 h -1.380565 v 7.39588 z m 14.20996,0 0.364864,-1.87362 h 1.617234 l 0.364863,1.87362 h 1.479177 l -1.6764,-7.39588 H 90.16671 l -1.765152,7.39588 z m 0.99598,-5.05878 c 0.06903,-0.34514 0.09861,-0.68042 0.138056,-1.02557 0.0099,-0.16764 0.02958,-0.33528 0.04931,-0.49305 h 0.01972 c 0.01972,0.15777 0.03945,0.32541 0.04931,0.49305 0.03945,0.34515 0.06903,0.68043 0.138057,1.02557 l 0.374725,2.10043 h -1.183342 z m 15.413045,-1.25237 h 1.61723 v 6.31115 h 1.38057 v -6.31115 h 1.60737 v -1.08473 h -4.60517 z"
       id="text2"
       aria-label="F     L     A     T" /><path
       style="opacity:1;fill:#ffffff;fill-opacity:1;stroke-width:0.363614"
       d="m 72.204503,123.756 c 0.156354,-0.14122 0.469019,-0.42365 0.917903,-0.75653 0.448884,-0.33288 1.033935,-0.71618 1.644216,-1.05914 0.610268,-0.34296 1.245754,-0.64557 1.946807,-0.9028 0.701054,-0.25722 1.467661,-0.46904 2.21412,-0.62036 0.746461,-0.1513 1.472718,-0.24208 2.320038,-0.27234 0.847333,-0.0303 1.815672,0 2.652904,0.0756 0.837219,0.0756 1.543329,0.1967 2.188902,0.34801 0.645574,0.1513 1.230595,0.33287 1.871139,0.57495 0.640544,0.2421 1.336539,0.54471 1.92666,0.8675 0.590107,0.32279 1.074256,0.66575 1.462616,0.96836 0.388361,0.30261 0.68088,0.56487 0.894967,0.742 0.214073,0.17713 0.349715,0.26912 0.450616,0.22877 0.10087,-0.0403 0.166976,-0.21302 0.225233,-0.66755 0.05826,-0.45454 0.108709,-1.19088 0.204522,-1.83141 0.09579,-0.64055 0.237037,-1.18523 0.443827,-1.86612 0.206789,-0.68089 0.479133,-1.49793 0.801913,-2.2696 0.322794,-0.77167 0.69601,-1.49793 1.114632,-2.22421 0.418623,-0.72627 0.882625,-1.45254 1.230623,-1.97202 0.348012,-0.5195 0.580006,-0.83219 0.716184,-1.07428 0.136193,-0.2421 0.176528,-0.41356 0.09579,-0.54469 -0.08067,-0.13114 -0.282417,-0.22192 -0.731301,-0.20175 -0.448886,0.0202 -1.144881,0.15131 -1.669421,0.32279 -0.524525,0.17147 -0.877595,0.38332 -1.119677,0.59009 -0.242067,0.20678 -0.373216,0.40853 -0.474088,0.54976 -0.100869,0.14122 -0.171484,0.22191 -0.307649,0.13616 -0.136192,-0.0858 -0.337911,-0.33792 -0.5447,-0.52957 -0.20679,-0.19166 -0.418624,-0.32279 -0.711155,-0.40349 -0.292531,-0.0807 -0.665748,-0.11095 -1.008702,-0.0857 -0.342969,0.0252 -0.655674,0.10593 -0.897742,0.232 -0.242081,0.1261 -0.413566,0.29756 -0.549744,0.51948 -0.136193,0.22192 -0.237065,0.49428 -0.237065,0.79689 0,0.30261 0.100869,0.63549 0.262283,0.91792 0.161397,0.28245 0.383304,0.51444 0.58505,0.7061 0.201732,0.19165 0.383317,0.34297 0.489233,0.56488 0.105957,0.22192 0.136192,0.51444 0.07064,0.76663 -0.06555,0.25217 -0.226952,0.46398 -0.433727,0.65565 -0.206789,0.19165 -0.458985,0.36314 -0.751517,0.46905 -0.292532,0.10593 -0.625372,0.14626 -0.983485,0.12105 -0.358099,-0.0252 -0.741388,-0.11599 -1.064195,-0.25722 -0.322794,-0.14122 -0.585036,-0.33287 -0.781738,-0.51948 -0.196689,-0.18661 -0.327824,-0.36817 -0.373203,-0.54975 -0.04535,-0.18159 -0.0055,-0.36313 0.151309,-0.5901 0.156354,-0.22696 0.428696,-0.49931 0.69601,-0.72122 0.267314,-0.22192 0.529584,-0.3934 0.731329,-0.5901 0.201746,-0.19669 0.342955,-0.41861 0.418609,-0.63547 0.07559,-0.21687 0.08576,-0.42871 0.05043,-0.70107 -0.03532,-0.27235 -0.115991,-0.60522 -0.267314,-0.86245 -0.151296,-0.25722 -0.373216,-0.43879 -0.615312,-0.59009 -0.242094,-0.15132 -0.504322,-0.27235 -0.796854,-0.35809 -0.292532,-0.0858 -0.615312,-0.13618 -0.9129,-0.116 -0.297577,0.0202 -0.569919,0.11096 -0.812015,0.17652 -0.242095,0.0655 -0.4539,0.10594 -0.625385,0.1967 -0.171484,0.0907 -0.302633,0.23201 -0.348012,-0.23201 -0.04535,-0.46402 0.277773,-1.59761 0.263083,-2.32389 -0.01512,-0.72628 -0.04934,-0.85465 -0.135065,-1.15726 -0.08576,-0.30262 -0.186601,-0.52453 -0.342954,-0.69602 -0.156354,-0.17147 -0.445417,-0.29252 -0.692555,-0.36817 -0.247152,-0.0757 -0.735591,-0.0415 -1.012991,-0.007 -0.277414,0.0354 -0.730026,0.16193 -0.941859,0.34854 -0.21182,0.18661 -0.363129,0.45896 -0.453915,0.7061 -0.09084,0.24714 -0.19079,0.42353 -0.208311,0.68409 -0.03587,0.21503 -0.06215,0.16819 -0.02682,0.79864 0.03531,0.63047 0.327537,1.65745 0.219845,2.10172 -0.107741,0.44428 -0.435059,0.28009 -0.790424,0.12738 -0.35535,-0.15273 -0.73864,-0.29393 -1.121971,-0.33429 -0.383318,-0.0403 -0.766648,0.0202 -1.114632,0.16642 -0.347972,0.14625 -0.660705,0.37827 -0.887669,0.61028 -0.226965,0.232 -0.368173,0.464 -0.438783,0.72123 -0.07064,0.25723 -0.07064,0.53965 -0.05044,0.7868 0.02021,0.24715 0.06047,0.45895 0.16372,0.63184 0.103204,0.1729 0.269168,0.30684 0.48834,0.50494 0.219158,0.1981 0.491502,0.46037 0.728566,0.64698 0.237052,0.18662 0.438798,0.29757 0.544701,0.45895 0.105956,0.16138 0.11599,0.37323 0.08067,0.55984 -0.03531,0.1866 -0.11599,0.34801 -0.237037,0.51948 -0.121075,0.17148 -0.282445,0.35307 -0.464016,0.47411 -0.181571,0.12104 -0.383304,0.18157 -0.675836,0.25217 -0.292532,0.0706 -0.675821,0.15131 -1.03392,0.15635 -0.358113,0.006 -0.690952,-0.0655 -0.988541,-0.23704 -0.297575,-0.17149 -0.559832,-0.44383 -0.73636,-0.68089 -0.176527,-0.23707 -0.267299,-0.43878 -0.267299,-0.6254 1.3e-5,-0.18663 0.09084,-0.35809 0.26227,-0.58505 0.171484,-0.22697 0.423653,-0.5094 0.640529,-0.76663 0.216877,-0.25722 0.398435,-0.48922 0.484177,-0.78678 0.08576,-0.29756 0.07559,-0.66069 1.3e-5,-0.96332 -0.07559,-0.30262 -0.216862,-0.54472 -0.544713,-0.73637 -0.327837,-0.19165 -0.842248,-0.33286 -1.245726,-0.37321 -0.403492,-0.0403 -0.696024,0.0202 -0.948207,0.10594 -0.252182,0.0858 -0.463988,0.19668 -0.660704,0.32278 -0.196716,0.12611 -0.378274,0.26731 -0.494264,0.38331 -0.11599,0.11599 -0.16644,0.20678 -0.287488,0.12104 -0.121075,-0.0857 -0.312692,-0.348 -0.468578,-0.5328 -0.155873,-0.18481 -0.27593,-0.2921 -0.43609,-0.39857 -0.16016,-0.10649 -0.360353,-0.21205 -0.574537,-0.29735 -0.214168,-0.0854 -0.442287,-0.15028 -0.719688,-0.21586 -0.277415,-0.0655 -0.604028,-0.13169 -0.848075,-0.12442 -0.24406,0.008 -0.405444,0.088 -0.506316,0.22415 -0.10087,0.13619 -0.141236,0.3278 -0.11599,0.52957 0.02515,0.20178 0.11599,0.41356 0.200481,0.60072 0.08452,0.18715 0.162716,0.34965 0.408605,0.8142 0.245901,0.46456 0.659453,1.23118 0.997377,1.96753 0.337925,0.73636 0.600195,1.44245 0.862465,2.15359 0.262269,0.71114 0.524525,1.42731 0.746446,2.08298 0.221907,0.65568 0.403478,1.2508 0.534599,1.79047 0.131107,0.53966 0.211833,1.02384 0.297698,1.45732 0.08589,0.43349 0.176913,0.81631 0.282829,0.9777 0.105957,0.16139 0.22669,0.10142 0.28709,0.0714 0.06033,-0.0301 0.06019,-0.0301 0.216589,-0.17125 z"
       id="path6"
       sodipodi:nodetypes="cccccccccccccccccccccccccccccccccccccccccccccccccccccccccccccccccccccccccccccccccccccccccccccccccccccccccccccc" /></g></svg>
